<?xml version="1.0" standalone="no"?>
<!DOCTYPE svg PUBLIC "-//W3C//DTD SVG 20010904//EN"
 "http://www.w3.org/TR/2001/REC-SVG-20010904/DTD/svg10.dtd">
<svg version="1.0" xmlns="http://www.w3.org/2000/svg"
 width="650.000000pt" height="650.000000pt" viewBox="0 0 650.000000 650.000000"
 preserveAspectRatio="xMidYMid meet">
<metadata>
Created by potrace 1.11, written by Peter Selinger 2001-2013
</metadata>
<g transform="translate(0.000000,650.000000) scale(0.100000,-0.100000)"
fill="#000000" stroke="none">
<path d="M2865 6394 c-856 -102 -1647 -548 -2168 -1222 -169 -218 -372 -581
-461 -822 -137 -374 -196 -711 -196 -1115 0 -520 97 -936 325 -1400 168 -343
406 -664 670 -909 448 -413 984 -690 1565 -806 224 -45 387 -60 645 -60 546 0
1001 109 1481 354 611 313 1097 806 1399 1421 228 464 325 880 325 1400 0 520
-97 937 -325 1400 -255 518 -630 940 -1115 1257 -415 271 -901 445 -1400 503
-171 19 -577 19 -745 -1z m1160 -1306 c-13 -38 -1125 -3708 -1125 -3713 0 -3
-102 -5 -226 -5 -177 0 -225 3 -221 13 2 6 255 840 561 1852 306 1012 559
1846 561 1853 3 9 58 12 229 12 176 0 224 -3 221 -12z m-2025 -982 l141 -139
-373 -367 -373 -367 368 -363 369 -363 -146 -146 -146 -146 -510 510 -511 510
513 507 c282 279 516 506 520 505 4 -1 70 -65 148 -141z m3156 -362 l514 -506
-507 -514 -507 -515 -149 148 -149 148 369 363 368 363 -373 370 -374 369 144
140 c79 76 145 139 147 140 2 0 234 -228 517 -506z"/>
</g>
</svg>
